# xmcd
#
# Track frame offsets:
#	150
#	16320
#	32561
#	51250
#	68840
#	85919
#	101734
#	116734
#	137894
#	154716
#	173704
#	187816
#	209051
#	224213
#	239219
#	254533
#	271533
#	287187
#	301878
#	318359
#
# Disc length: 4466 seconds
#
# Revision: 1
# Processed by: cddbd v1.5.2PL0 Copyright (c) Steve Scherf et al.
# Submitted via: audiograbber 1.83.01
#
DISCID=2f117014
DTITLE=Andrea Berg - Gold Collection - CD 1
DYEAR=2007
DGENRE=Schlager
TTITLE0=Du willst mich für eine Nacht
TTITLE1=Splitternackt
TTITLE2=Party Mix
TTITLE3=Ein Tag mit dir im Paradies
TTITLE4=Auch wenn ich fühl wie du
TTITLE5=Ich hab nie im Regen getanzt
TTITLE6=Geh doch, wenn du sie liebst
TTITLE7=Alles an mir
TTITLE8=Heut will ich nur mit dir
TTITLE9=Doch du sagst nicht wann
TTITLE10=Wirst du's in meinen Augen sehen
TTITLE11=Auch heute noch
TTITLE12=Warum hast du mir nie gesagt, bleib heute Nacht
TTITLE13=Glaub nicht, dass sie dich liebt, wie ich
TTITLE14=Warum belügst du mich
TTITLE15=Du hast mich tausend mal belogen
TTITLE16=Die Gefühle haben Schweigepflicht
TTITLE17=Ein bisschen Wahnsinn
TTITLE18=Nein, das träum ich nicht allein
TTITLE19=Jedes Feuer stirbt einmal im Regen
EXTD=
EXTT0=
EXTT1=
EXTT2=
EXTT3=
EXTT4=
EXTT5=
EXTT6=
EXTT7=
EXTT8=
EXTT9=
EXTT10=
EXTT11=
EXTT12=
EXTT13=
EXTT14=
EXTT15=
EXTT16=
EXTT17=
EXTT18=
EXTT19=
PLAYORDER=
